<svg width="60" height="60" viewBox="0 0 60 60" fill="none" xmlns="http://www.w3.org/2000/svg">
<path d="M30 42.5C23.1075 42.5 17.5 36.8925 17.5 30C17.5 23.1075 23.1075 17.5 30 17.5C36.8925 17.5 42.5 23.1075 42.5 30C42.5 36.8925 36.8925 42.5 30 42.5ZM30 22.5C25.865 22.5 22.5 25.865 22.5 30C22.5 34.135 25.865 37.5 30 37.5C34.135 37.5 37.5 34.135 37.5 30C37.5 25.865 34.135 22.5 30 22.5Z" fill="black"/>
<path d="M56.475 22.725C56.025 22.575 54.15 22.5 54.15 22.5C52.775 22.5 51.65 21.375 51.65 20C51.65 19.3 51.95 18.65 52.425 18.2C52.425 18.2 53.65 16.85 53.85 16.4C54.85 14.525 54.55 12.125 52.975 10.55L49.45 7.025C48.475 6.05 47.2 5.575 45.925 5.575C45.125 5.575 44.325 5.775 43.6 6.15C43.15 6.35 41.85 7.55 41.85 7.55C41.4 8.05 40.75 8.35 40 8.35C38.625 8.35 37.5 7.225 37.5 5.85V5C37.5 4.475 37.425 3.975 37.275 3.525C36.65 1.475 34.725 0 32.5 0H27.5C25.275 0 23.35 1.475 22.725 3.525C22.575 3.975 22.5 4.475 22.5 5V5.85C22.5 7.225 21.375 8.35 20 8.35C19.25 8.35 18.6 8.05 18.15 7.55C18.15 7.55 16.85 6.35 16.4 6.15C15.675 5.775 14.875 5.575 14.075 5.575C12.8 5.575 11.525 6.05 10.55 7.025L7.025 10.55C5.45 12.125 5.15 14.525 6.15 16.4C6.35 16.85 7.575 18.2 7.575 18.2C8.05 18.65 8.35 19.3 8.35 20C8.35 21.375 7.225 22.5 5.85 22.5C5.85 22.5 3.975 22.575 3.525 22.725C1.475 23.35 0 25.275 0 27.5V32.5C0 34.725 1.475 36.65 3.525 37.275C3.975 37.425 5.85 37.5 5.85 37.5C7.225 37.5 8.35 38.625 8.35 40C8.35 40.7 8.05 41.35 7.575 41.8C7.575 41.8 6.35 43.15 6.15 43.6C5.15 45.475 5.45 47.875 7.025 49.45L10.55 52.975C11.525 53.95 12.8 54.425 14.075 54.425C14.875 54.425 15.675 54.225 16.4 53.85C16.85 53.65 18.15 52.45 18.15 52.45C18.6 51.95 19.25 51.65 20 51.65C21.375 51.65 22.5 52.775 22.5 54.15V55C22.5 55.525 22.575 56.025 22.725 56.475C23.35 58.525 25.275 60 27.5 60H32.5C34.725 60 36.65 58.525 37.275 56.475C37.425 56.025 37.5 55.525 37.5 55V54.15C37.5 52.775 38.625 51.65 40 51.65C40.75 51.65 41.4 51.95 41.85 52.45C41.85 52.45 43.15 53.65 43.6 53.85C44.325 54.225 45.125 54.425 45.925 54.425C47.2 54.425 48.475 53.95 49.45 52.975L52.975 49.45C54.55 47.875 54.85 45.475 53.85 43.6C53.65 43.15 52.425 41.8 52.425 41.8C51.95 41.35 51.65 40.7 51.65 40C51.65 38.625 52.775 37.5 54.15 37.5C54.15 37.5 56.025 37.425 56.475 37.275C58.525 36.65 60 34.725 60 32.5V27.5C60 25.275 58.525 23.35 56.475 22.725V22.725ZM55 31.25C55 31.925 54.475 32.475 53.8 32.5C49.825 32.675 46.65 35.975 46.65 40C46.65 41.875 47.375 43.7 48.625 45.075C48.825 45.3 48.95 45.575 48.95 45.9C48.95 46.25 48.825 46.525 48.625 46.75L46.8 48.55C46.575 48.775 46.275 48.925 45.925 48.925C45.6 48.925 45.3 48.8 45.075 48.6C43.725 47.35 41.9 46.65 40 46.65C35.975 46.65 32.675 49.85 32.475 53.825C32.45 54.475 31.925 55 31.25 55H28.75C28.075 55 27.55 54.475 27.525 53.825C27.325 49.85 24.025 46.65 20 46.65C18.1 46.65 16.275 47.35 14.925 48.6C14.7 48.8 14.4 48.925 14.075 48.925C13.725 48.925 13.425 48.775 13.2 48.55L11.375 46.75C11.175 46.525 11.05 46.25 11.05 45.9C11.05 45.575 11.175 45.3 11.375 45.075C12.625 43.7 13.35 41.875 13.35 40C13.35 35.975 10.175 32.675 6.2 32.5C5.525 32.475 5 31.925 5 31.25V28.75C5 28.05 5.55 27.5 6.25 27.5C10.2 27.3 13.35 24 13.35 20C13.35 18.15 12.65 16.375 11.425 15C11.425 15 11.4 14.975 11.4 14.95C11.175 14.75 11.05 14.425 11.05 14.1C11.05 13.75 11.2 13.425 11.425 13.2L13.15 11.45H13.175C13.4 11.2 13.7 11.05 14.075 11.05C14.425 11.05 14.725 11.2 14.95 11.425C16.325 12.65 18.125 13.35 20 13.35C24 13.35 27.275 10.2 27.5 6.25C27.5 5.55 28.05 5 28.75 5H31.25C31.95 5 32.5 5.55 32.5 6.25C32.725 10.2 36 13.35 40 13.35C41.875 13.35 43.675 12.65 45.05 11.425C45.275 11.2 45.575 11.05 45.925 11.05C46.3 11.05 46.6 11.2 46.825 11.45H46.85L48.575 13.2C48.8 13.425 48.95 13.75 48.95 14.1C48.95 14.425 48.825 14.75 48.6 14.95C48.6 14.975 48.575 15 48.575 15C47.35 16.375 46.65 18.15 46.65 20C46.65 24 49.8 27.3 53.75 27.5C54.45 27.5 55 28.05 55 28.75V31.25Z" fill="black"/>
</svg>
